<?xml version="1.0" encoding="utf-8"?>
<!-- Generator: Adobe Illustrator 25.4.1, SVG Export Plug-In . SVG Version: 6.00 Build 0)  -->
<svg version="1.1" id="Layer_1" focusable="false" xmlns="http://www.w3.org/2000/svg" xmlns:xlink="http://www.w3.org/1999/xlink"
	 x="0px" y="0px" viewBox="0 0 12 12" style="enable-background:new 0 0 12 12;" xml:space="preserve">
<style type="text/css">
	.st0{fill:#42A5F5;}
</style>
<path class="st0" d="M10.1,3.4H2.5c-0.2,0-0.3-0.1-0.3-0.3s0.1-0.3,0.3-0.3h7.7c0.2,0,0.3-0.1,0.3-0.3c0-0.5-0.4-1-1-1H2.2
	c-0.7,0-1.3,0.6-1.3,1.3v6.4c0,0.7,0.6,1.3,1.3,1.3h7.9c0.6,0,1-0.4,1-1V4.4C11.1,3.9,10.7,3.4,10.1,3.4z M9.2,7.6
	C8.8,7.6,8.6,7.3,8.6,7c0-0.4,0.3-0.6,0.6-0.6c0.4,0,0.6,0.3,0.6,0.6C9.8,7.3,9.6,7.6,9.2,7.6z"/>
</svg>
